# xmcd
#
# Track frame offsets: 
#        150
#        11188
#        21603
#        41273
#        54342
#        67435
#        79166
#        91683
#        99527
#        111117
#        122037
#        133110
#
# Disc length: 1886 seconds
#
# Revision: 0
# Processed by: cddbd v1.5.2PL0 Copyright (c) Steve Scherf et al.
# Submitted via: ExactAudioCopy v1.3
#
DISCID=a3075c0c
DTITLE=Lynn Anderson - Big Girls Don't Cry
DYEAR=1968
DGENRE=Country
TTITLE0=Big Girls Don't Cry
TTITLE1=Pick Of The Week
TTITLE2=Honey
TTITLE3=Just Between The Two Of Us
TTITLE4=I Live To Love You
TTITLE5=All My Friends Are Gonna Be Strangers
TTITLE6=The Pillow That Whispers
TTITLE7=Ring Of Fire
TTITLE8=Come On Home
TTITLE9=Wandering Mind
TTITLE10=You Mean The World To Me
TTITLE11=I Keep Forgettin' That I Forgot About You
EXTD=
EXTT0=
EXTT1=
EXTT2=
EXTT3=
EXTT4=
EXTT5=
EXTT6=
EXTT7=
EXTT8=
EXTT9=
EXTT10=
EXTT11=
PLAYORDER=
